<?xml version="1.0" encoding="utf-8"?>
<!-- Generator: Adobe Illustrator 21.1.0, SVG Export Plug-In . SVG Version: 6.00 Build 0)  -->
<svg version="1.1" id="Layer_1" xmlns="http://www.w3.org/2000/svg" xmlns:xlink="http://www.w3.org/1999/xlink" x="0px" y="0px"
	 viewBox="0 0 452 482" style="enable-background:new 0 0 452 482;" xml:space="preserve">
<style type="text/css">
	.st0{fill:#69873C;}
	.st1{fill:#CC9F6B;}
	.st2{fill:#A67B4A;}
	.st3{fill:#CD9F6B;}
</style>
<g>
	<path class="st0" d="M222.9,322c2.2-11.5-1.9-19.5-12.7-24.8c-3.8-1.9-7.1-3.4-11.5-3.3c-21.4,0.9-40.6-4.7-55.7-20.7
		c-13.2-13.9-18.3-31.3-20.3-49.9c-0.4-3.4,1.9-2.5,3.5-2.3c17.5,2.8,34.5,7.5,49.7,17c18.4,11.6,31.1,27.4,35,49.3
		c0.3,1.4,0.7,2.4,2,3.2c2.5,1.6,5,3.3,7.5,4.9c0.5,0.3,1.2,0.6,1.7,0.9c1.4-1.1,0.8-2.5,0.8-3.7c0.1-16.7,0-33.3,0.1-50
		c0-3-0.6-5.1-3.3-6.6c-2-1.1-3.9-2.6-5.7-4c-8.7-6.8-17.7-10.8-29.5-11.3c-32.3-1.3-54.5-18.9-68.1-47.8
		c-7-14.9-10.3-30.9-12.1-47.2c-0.2-2.1-0.5-3.6,2.6-3.1c29.6,4.6,57.6,12.9,79,35.6c13.7,14.6,20.6,32.1,20.8,52
		c0,4.2,1.2,6.8,4.8,8.8c3.6,2,7,4.4,10.9,6.9c1-2.7,0.5-5.2,0.5-7.5c0.1-10-0.1-20,0.1-30c0.1-3.8-1.1-6.6-3.4-9.4
		c-14-17.2-25.3-36-30.5-57.8c-8.1-34.2,1-64.2,23.5-90.4c3.1-3.7,6.8-6.8,10.1-10.3c1.5-1.5,2.6-1.4,4.2-0.1
		c32,27,49.4,67.2,35.5,110.3c-5.7,17.7-15.1,33.3-26.7,47.6c-2.7,3.3-3.9,6.6-3.8,10.8c0.2,12,0.1,24,0.1,36.7
		c5.8-2.7,10.4-6.4,15.3-9.5c0.9-0.6,0.8-1.7,0.8-2.7c0.2-39.2,21.2-63.7,55.4-78.9c13.8-6.1,28.3-9.5,43.2-11.8
		c1.9-0.3,4.5-1.5,4,2.6c-2.6,21.5-7.2,42.4-19.6,60.7c-16.9,25-41,36.1-70.8,35.1c-2.5-0.1-4.4,0.2-6.5,1.7
		c-6.2,4.5-12.5,8.8-18.8,13.2c-2,1.4-3.2,2.9-3.2,5.6c0.2,17,0.2,34,0,51c0,4,1.1,3.6,3.9,2c5.1-2.9,8-6.6,9.5-12.7
		c5.3-21.7,19.6-36.6,38.9-47c13.8-7.5,28.7-11.5,44-14c3.1-0.5,4.4-0.1,3.9,3.7c-3.1,23.5-10.8,44.4-31.6,58
		c-13.3,8.7-28.1,11.9-43.8,11.1c-5-0.3-8.7,1.6-12.9,3.8c-9.6,5.2-14.2,12.3-11.8,23.2c0.1,0.3,0,0.7,0,1
		C229,323.4,226,323.4,222.9,322z"/>
	<path class="st1" d="M168.8,455.2c-8.6-12.8-13.9-27-18.1-41.7c-4.7-16.7-6.1-33.9-6.5-51.1c0-1.8,0.5-3.6,0.8-5.4
		c24,0,47.9,0,71.9,0c20.3,0,40.6,0,60.9,0c8.7,0,13.7,4.8,14,13.2c0.1,4-0.4,7.9-0.8,11.9c-2,18.8-8.8,36.1-17.2,52.7
		c-6.3,12.4-16.3,18.8-30.9,18.4c-23-0.6-45.9-0.2-68.9-0.1C172.2,453.1,169.5,452,168.8,455.2z"/>
	<path class="st2" d="M168.8,455.2c0.7-3.2,3.4-2.1,5.3-2.1c23-0.1,46-0.5,68.9,0.1c14.7,0.4,24.6-6,30.9-18.4
		c8.4-16.6,15.2-33.9,17.2-52.7c0.4-4,0.9-7.9,0.8-11.9c-0.3-8.5-5.3-13.2-14-13.2c-20.3,0-40.6,0-60.9,0c-24,0-47.9,0-71.9,0
		c0-1.5-0.2-3,0-4.5c0.5-3.4,0-5.3-4-6.3c-3.8-0.9-6.3-4.1-7.1-8.2c0-1.1-0.1-2.1-0.1-3.2c0,0,0-0.1,0-0.1c3.7,2.5,7.7,3.3,12.2,3.3
		c52.7-0.1,105.4-0.1,158.1,0c6.8,0,12.8-0.8,16.7-7.1c1.9,7.1-0.9,13.3-7.7,15.5c-3.3,1.1-3.4,2.7-3.3,5.4
		c1.4,24.3-1,48.2-8.8,71.4c-4.5,13.5-10.8,26.1-18.5,38.1c-1.2,1.9-2.6,2.6-4.9,2.6c-33.3-0.1-66.7-0.1-100,0
		C171.6,464.1,171.5,458.4,168.8,455.2z"/>
	<path class="st3" d="M320.9,331c-3.9,6.3-9.9,7.1-16.7,7.1c-52.7-0.1-105.4-0.1-158.1,0c-4.5,0-8.5-0.7-12.2-3.3
		c0.6-8.5,5.2-12.5,14.7-12.5c22.1,0,44.3,0,66.4,0c2.7,0,5.3-0.2,8-0.3c3,1.4,6.1,1.4,9.1,0c18.9,0.1,37.9,0.2,56.8,0.3
		c6.1,0,12.3-0.1,18.4,0C313.5,322.4,318.6,324.6,320.9,331z"/>
	<path class="st3" d="M133.8,334.9c0,1.1,0.1,2.1,0.1,3.2C133.2,337,132.4,336,133.8,334.9z"/>
</g>
</svg>
