<?xml version="1.0" encoding="utf-8"?>
<!-- Generator: Adobe Illustrator 21.1.0, SVG Export Plug-In . SVG Version: 6.00 Build 0)  -->
<svg version="1.1" id="Layer_1" xmlns="http://www.w3.org/2000/svg" xmlns:xlink="http://www.w3.org/1999/xlink" x="0px" y="0px"
	 viewBox="0 0 408.2 396.6" style="enable-background:new 0 0 408.2 396.6;" xml:space="preserve">
<style type="text/css">
	.st0{fill:#999999;}
	.st1{fill:#CCCCCC;}
</style>
<rect class="st0" width="408.2" height="396.6"/>
<path class="st1" d="M43.1,359.1c2.8-23,10.6-44.2,22.8-63.8c14.8-23.8,34.5-42.6,58.9-56.5c2.8-1.6,4.5-1.5,6.9,0.8
	c20.2,18.6,44.2,28.2,71.6,28.3c27.6,0.1,52-9.4,72.4-28.3c2.4-2.2,4.1-2.4,6.9-0.8c44.1,25.8,71.2,63.6,80.9,113.8
	c0.2,0.9-0.6,2.7,1.5,2.4c0.7,3.4-0.6,4.1-4,4.1C255.1,359.1,149.1,359.1,43.1,359.1z"/>
<path class="st1" d="M295.9,150.7c-0.1,50.6-41.6,92.1-92.2,92.1c-50.5,0-92.2-41.6-92.2-92.1c0-50.9,41.7-92.5,92.4-92.2
	C254.8,58.7,296,100,295.9,150.7z"/>
</svg>
