<?xml version="1.0" encoding="utf-8"?>
<!-- Generator: Adobe Illustrator 21.1.0, SVG Export Plug-In . SVG Version: 6.00 Build 0)  -->
<svg version="1.1" id="Layer_1" xmlns="http://www.w3.org/2000/svg" xmlns:xlink="http://www.w3.org/1999/xlink" x="0px" y="0px"
	 viewBox="0 0 150 187.8" style="enable-background:new 0 0 150 187.8;" xml:space="preserve">
<style type="text/css">
	.st0{display:none;}
	.st1{display:inline;fill:#8CC63F;}
	.st2{display:inline;fill:#42210B;}
	.st3{display:inline;}
	.st4{fill:#42210B;}
	.st5{fill:#8CC63F;}
</style>
<g class="st0">
	<path class="st1" d="M76,63.5c0.2-2,0.2-4,0.5-6c0.4-2.8,1.9-5.2,4-7.1c0.5-0.5,0.9-1.1,1.1-1.7c0.7-1.5,1.4-2.9,2.7-4
		c1.5-1.3,2-3.1,1.7-5c-0.3-1.9-0.8-3.9-1.2-5.8C84.5,32,84.2,30,84.7,28c0.1-0.4,0.3-0.8,0.5-1.2c-0.5,3,0.6,5.7,1.6,8.7
		c1.4-1.4,2.6-2.6,3.9-3.8c0,0,0.1,0.1,0.1,0.1c-0.4,0.5-0.9,1-1.3,1.5c-0.6,0.7-1.1,1.4-1.6,2.1c-0.6,0.8-0.7,1.7-0.5,2.7
		c0.3,1.1,0.5,2.2,0.5,3.4c0,1.3-0.4,2.6-0.6,4c0.2-0.1,0.5-0.2,0.7-0.3c0.9-0.5,1.7-1,2.5-1.5c3.9-2.1,5.8-5.5,6.4-9.8
		c0.2-1.9,0.6-3.7,0.9-5.6c0-0.2,0.1-0.5,0.2-0.7c1.4-5.3,4.2-7.7,9.6-8c1.8-0.1,3.5,0,5.3,0c0,0.1,0,0.2,0,0.3
		c-0.2,0.1-0.5,0.2-0.7,0.2c-1.6,0.4-3.3,0.7-4.9,1.2c-3.8,1.2-5.9,4-6.3,8c-0.3,2.3-0.5,4.5-0.9,6.8c-0.5,3.1-2,5.8-4.3,8
		c-2,2-4.3,3.6-6.9,4.9c-1.5,0.7-2.9,1.5-4.4,2.2c-3.5,1.7-5.8,4.5-7.1,8.2c-0.5,1.4-0.9,2.8-1.3,4.2C76.2,63.5,76.1,63.5,76,63.5z"
		/>
	<path class="st1" d="M13.4,34.7c9.2,0,18.4,0.3,27.8,2.5c-2.4-3.7-4.6-7.1-3.7-11.5c-0.1,5.1,2.6,8.6,6.3,11.7
		c0.3,0.2,0.7,0.4,1,0.5c0.3,0.1,0.7,0.2,1,0.3c4.7,1.3,7.4,4.4,8.5,9c0.6,2.4,1,4.8,1.6,7.2c1.4,5.6,3.7,10.8,6.6,15.7
		c0.3,0.4,0.5,0.9,0.7,1.3c0,0.1,0.1,0.2,0.2,0.5c-0.4-0.4-0.7-0.6-1-0.9c-0.7-0.8-1.4-1.6-2.1-2.3c-4.9-5.3-7.7-11.6-9-18.6
		c-0.2-1.3-0.5-2.5-0.9-3.7c-0.7-2.2-2.1-3.7-4.3-4.4c-2.2-0.7-4.5-1.2-6.7-1.7c-8.3-1.8-16.6-3.6-24.9-5.3
		C14.2,35,13.8,34.8,13.4,34.7z"/>
	<path class="st2" d="M76.8,94.1c-0.6,2.4-1.3,4.7-1.9,7.1c-1.2,5.2-1.8,10.5-1.8,15.8c-0.4,4.6-0.4,4.6-1.1,10.4
		c-0.2-1.4-0.5-2.9-0.7-4.3c-0.5-3.9-0.7-7.8-0.5-11.7c0.4-9.2,2.2-18.1,6.6-26.3c1.6-3,3.5-5.9,6-8.3c2.9-2.8,6.4-4.4,10.4-5
		c3.7-0.5,7.3-0.2,11-0.1c-2.1,0.2-3.2,0.4-5.3,0.7c-2,0.2-4.1,0.4-6.1,0.8c-3.4,0.7-6.2,2.5-8.4,5.1c-2.3,2.8-4.1,5.9-5.6,9.2
		c-0.5,1.1-1,2.3-1.6,3.7"/>
	<path class="st1" d="M125.9,56.2c-1,0.3-2.1,0.5-3.1,0.8c-1,0.3-1.8,0.8-2.4,1.7c-0.1,0.1-0.1,0.2-0.2,0.2c-2.8,4-6.6,5.9-11.4,5.7
		c-2.5-0.1-4.9-0.3-7.4-0.2c-2.5,0-5,0.1-7.5,0.5c-3.5,0.5-6.7,2-9.7,4c-0.7,0.4-1.3,0.9-2.1,1.2c0.2-0.3,0.4-0.6,0.6-0.9
		c1.6-1.6,3.1-3.4,4.8-4.9c2.2-2,5-3,8-3.1c2.5-0.1,4.9,0,7.4,0c4.1,0,7.7-3.3,8-7.4c0-0.3,0-0.6,0.1-0.9c2.6,2.6,1.4,5.2-1.4,8.2
		c2.4-0.1,4.5-0.5,6.4-1.8c0.6-0.4,1.1-0.8,1.6-1.3c1.6-1.5,3.4-2.1,5.6-2.1c0.9,0,1.9,0,2.8,0C125.8,56,125.9,56.1,125.9,56.2z"/>
	<path class="st1" d="M57.7,22c0.1,0.5,0.2,0.8,0.2,1c0.1,1.4,0.7,2.4,1.7,3.4c3.3,3.2,5.9,6.8,7.3,11.2c0.7,2.2,1.2,4.4,1.7,6.6
		c0.1,0.3,0.2,0.6,0.3,1.2c3.2-3.5,5-7.5,5.5-12c0,3.9-0.8,7.5-3.1,10.6c-1.5,2.1-1.9,4.5-1.6,7c0.3,3.3,0.7,6.6,1.8,9.8
		c-0.2-0.2-0.4-0.4-0.6-0.6c-2.8-3.6-4.5-7.7-5.1-12.3c-0.2-1.9-0.6-3.7-1-5.5c-0.7-3.1-1.9-6.1-3.6-8.9c-1.2-2.1-2.3-4.2-3.3-6.3
		C57.1,25.6,56.8,24,57.7,22z"/>
	<path class="st1" d="M25.8,49.1c4.6-1.5,8.9-1,13.1,1.6c1.2,0.8,2.4,1.5,3.7,2.3c5,3,8.1,7.6,10.1,12.9c0,0.1,0,0.2,0,0.4
		c-0.4-0.4-0.7-0.8-1-1.2c-1.8-1.9-3.5-3.9-5.3-5.8c-3.9-3.9-8.5-6.8-13.6-8.8c-1.8-0.7-3.7-1.1-5.6-1.3
		C26.7,49.2,26.2,49.1,25.8,49.1z"/>
	<path class="st2" d="M87.2,105.4c0.4-0.3,0.7-0.4,0.9-0.6c2.5-2.1,5.4-2.5,8.5-2.1c1.3,0.2,2.5,0.8,3.2,2.1
		c0.3,0.6,0.4,1.3,0.5,1.9c0,0.2-0.4,0.6-0.6,0.6c-0.3,0-0.6-0.2-0.9-0.4c-0.1-0.1-0.1-0.3-0.1-0.4c-0.3-1.2-1.2-1.9-2.3-2.3
		c-2.3-0.8-4.6-0.7-6.7,0.4c-1.8,0.9-2.8,2.3-3.1,4.3c-0.5,3.3-1.2,6.5-2.4,9.6c-0.8,1.9-1.8,3.7-2.8,5.6c-0.1,0.3-0.4,0.5-0.8,0.7
		c0.5-1.1,1-2.1,1.4-3.2c1.8-4.2,2.7-8.6,3.1-13.2c0.1-1.4,0.2-2.9,0.4-4.3c0.1-0.6,0.1-1.3,0.9-1.3c0.8,0.1,0.7,0.8,0.7,1.4
		C87.1,104.5,87.2,104.8,87.2,105.4z"/>
	<g class="st3">
		<path class="st4" d="M101.9,116.7c0,0-0.1,0-0.1,0c-0.4-0.2-0.8-0.7-0.1-1.4c0,0,0.1-0.1,0.1-0.1c0.8-0.1,1.5-0.2,2.2-0.5
			c2.3-0.8,4.3-2.2,6.4-3.7c1-0.7,2-1.5,2.8-2.4c0.4-0.4,0.7-0.9,1-1.4c0.2-0.5,0.4-1.1,0.4-1.5c0-0.5-0.1-0.7-0.5-1
			c-0.4-0.3-0.9-0.5-1.4-0.6c-1.1-0.2-2.2,0-3.3,0.4c-2.1,0.9-3.6,2.9-4.4,5.2c-0.4,1.1-0.7,2.3-1,3.6c-0.2,1.2-0.4,2.4-0.3,3.6
			c0.1,1.2,0.3,2.3,0.9,3.2c0.6,0.9,1.5,1.6,2.6,1.9c2.2,0.6,4.7,0.1,7-0.7l0.6-0.2l0.3-0.1c0.2-0.1,0.4-0.2,0.6-0.3
			c0,0,0.5-0.2,1.2-0.5c0.7-0.3,1.5-0.7,2.2-1.1c1.2-0.7,1.6-0.8,1.6-0.6c0,0.2-0.5,0.8-1.1,1.3c0.1,0-0.7,0.6-1.6,1.2
			c-0.9,0.6-1.8,1.1-1.8,1.1c-0.2,0.1-0.5,0.2-0.7,0.3l-0.3,0.1l-0.5,0.2c-0.3,0.1-0.6,0.2-0.9,0.3c-2.4,0.8-5.2,1.2-7.9,0.1
			c-1.3-0.5-2.4-1.6-3-2.9c-0.6-1.3-0.8-2.7-0.8-4c0-1.3,0.2-2.6,0.5-3.9c0.3-1.3,0.6-2.5,1.1-3.7c0.5-1.2,1.2-2.4,2.1-3.4
			c0.9-1,2.1-1.8,3.3-2.3c1.3-0.5,2.7-0.7,4.1-0.3c0.7,0.2,1.4,0.4,2,1c0.3,0.3,0.6,0.7,0.7,1.1c0.1,0.4,0.1,0.9,0.1,1.2
			c-0.2,1.5-1,2.7-1.9,3.7c-0.9,1-2,1.8-3,2.5c-2,1.4-4.1,3-6.7,3.8C103.6,116.5,102.8,116.7,101.9,116.7z"/>
	</g>
	<g class="st3">
		<g>
			<path class="st4" d="M161.7,78.4C161.7,78.4,161.7,78.4,161.7,78.4c0.3-0.4,0.9-0.8,1.4,0c0,0,0,0.1,0,0.1L163,81
				c-0.7,8-1.6,16-3.5,23.8c-1,3.9-2.2,7.8-3.9,11.5c-0.8,1.9-1.7,3.7-2.8,5.4l-0.3,0.5l-0.2,0.3l-0.4,0.6c0,0-0.4,0.5-0.9,1
				c-0.5,0.6-1.2,1.3-1.9,1.8c-1.1,0.9-1.5,1-1.5,0.8c0-0.2,0.4-0.7,0.9-1.4c-0.1,0,0.6-0.7,1.1-1.5c0.6-0.8,1.1-1.7,1.1-1.7
				c0.1-0.2,0.3-0.4,0.4-0.6l0.2-0.3l0.2-0.3l0.4-0.6c1-1.7,1.8-3.4,2.6-5.2c1.6-3.6,2.7-7.3,3.7-11.1c1.9-7.6,2.7-15.4,3.4-23.2
				L161.7,78.4z"/>
		</g>
		<g>
			<path class="st4" d="M156.1,83.5C156.1,83.5,156.1,83.6,156.1,83.5c-0.5,0.2-1.2,0.2-1.2-0.8c0,0,0-0.1,0-0.1l1.6-1.9
				c2-2.4,4.2-4.8,6.8-6.7c1.3-0.9,2.7-1.8,4.2-2.4c1.5-0.6,3.1-1,4.7-1.1c3.2-0.3,6.6,0.3,9.5,1.8c2.9,1.5,5.3,4.1,6.6,7.1
				c1.3,3,1.7,6.4,0.9,9.6c-0.8,3.3-2.9,5.9-5.2,8.1c-2.4,2.2-5.2,3.9-8.3,4.8c-0.1,0-0.2,0.1-0.3,0.1l-0.2,0.1l-0.1,0l-0.2,0
				l-0.4,0.1c-0.2,0.1-0.5,0.1-0.8,0.1c0,0-0.1,0-0.4,0c-0.3,0-0.6,0-1,0c-0.8,0-1.8-0.2-2.6-0.4c-1.3-0.4-1.7-0.7-1.5-0.8
				c0.2-0.1,0.9,0,1.7,0c-0.1,0,0.9,0.1,1.9,0c0.5,0,1-0.1,1.3-0.2c0.4-0.1,0.6-0.1,0.6-0.1c0.2,0,0.4-0.1,0.7-0.1l0.3-0.1l0.1,0
				l0.2,0c0.1,0,0.2,0,0.3-0.1c0.3-0.1,0.7-0.2,1-0.3c2.8-1,5.3-2.7,7.4-4.8c2.1-2.1,3.8-4.6,4.3-7.5c0.5-2.8,0.1-5.9-1.2-8.5
				c-1.3-2.6-3.4-4.8-6.1-6c-2.6-1.3-5.6-1.8-8.5-1.4c-2.9,0.3-5.7,1.5-8,3.3c-2.4,1.8-4.4,4-6.4,6.3L156.1,83.5z"/>
		</g>
		<g>
			<path class="st4" d="M158.3,121.7c0,0,0,0,0-0.1c0-0.5,0.3-1,1.2-0.7c0,0,0.1,0,0.1,0.1c0.4,0.6,0.9,1.2,1.4,1.6
				c1.2,0.9,2.6,1.5,4.2,1.9c1.5,0.4,3.1,0.5,4.7,0.6c3.2,0.1,6.5-0.1,9.6-0.8c1.6-0.3,3.1-0.8,4.6-1.4c1.5-0.6,2.9-1.3,4.3-2.2
				c1.4-0.8,2.7-1.8,3.8-2.9c1.1-1.1,2.1-2.3,2.5-3.7c0.9-2.9-0.2-6.2-2.3-8.4c-2.1-2.3-5.1-3.7-8.1-4.6c-3.1-0.9-6.3-1.5-9.5-1.3
				l-0.5,0l-0.1,0l-0.2,0l-0.3,0c-0.2,0-0.5,0.1-0.7,0.1c0,0-0.5,0-1.3,0.2c-0.7,0.1-1.6,0.4-2.4,0.6c-1.2,0.5-1.6,0.6-1.6,0.4
				c0-0.2,0.5-0.7,1.3-1.2c-0.1,0,0.8-0.5,1.8-0.9c1-0.4,2.1-0.7,2.1-0.7c0.2-0.1,0.5-0.1,0.7-0.1l0.4,0l0.1,0l0.5,0
				c0.4,0,0.8-0.1,1.3-0.1c3.4,0,6.6,0.7,9.8,1.7c3.1,1.1,6.2,2.7,8.4,5.4c1.1,1.4,1.8,2.9,2.2,4.7c0.4,1.7,0.3,3.5-0.4,5.2
				c-0.7,1.7-1.9,3-3.1,4.1c-1.3,1.1-2.6,2.1-4,2.9c-2.9,1.7-6,2.9-9.2,3.6c-3.2,0.7-6.6,0.9-9.8,0.8c-1.6-0.1-3.3-0.2-4.9-0.7
				c-1.6-0.4-3.3-1-4.7-2.2C159.4,123.2,158.8,122.5,158.3,121.7z"/>
		</g>
	</g>
	<g class="st3">
		<path class="st4" d="M124.8,117.2c0,0-0.1,0-0.1,0c-0.4-0.2-0.8-0.7-0.1-1.4c0,0,0.1-0.1,0.1-0.1c0.8-0.1,1.5-0.2,2.2-0.5
			c2.3-0.8,4.3-2.2,6.4-3.7c1-0.7,2-1.5,2.8-2.4c0.4-0.4,0.7-0.9,1-1.4c0.2-0.5,0.4-1.1,0.4-1.5c0-0.5-0.1-0.7-0.5-1
			c-0.4-0.3-0.9-0.5-1.4-0.6c-1.1-0.2-2.2,0-3.3,0.4c-2.1,0.9-3.6,2.9-4.4,5.2c-0.4,1.1-0.7,2.3-1,3.6c-0.2,1.2-0.4,2.4-0.3,3.6
			c0.1,1.2,0.3,2.3,0.9,3.2c0.6,0.9,1.5,1.6,2.6,1.9c2.2,0.6,4.7,0.1,7-0.7l0.6-0.2l0.3-0.1c0.2-0.1,0.4-0.2,0.6-0.3
			c0,0,0.5-0.2,1.2-0.5c0.7-0.3,1.5-0.7,2.2-1.1c1.2-0.7,1.6-0.8,1.6-0.6c0,0.2-0.5,0.8-1.1,1.3c0.1,0-0.7,0.6-1.6,1.2
			c-0.9,0.6-1.8,1.1-1.8,1.1c-0.2,0.1-0.5,0.2-0.7,0.3l-0.3,0.1l-0.5,0.2c-0.3,0.1-0.6,0.2-0.9,0.3c-2.4,0.8-5.2,1.2-7.9,0.1
			c-1.3-0.5-2.4-1.6-3-2.9c-0.6-1.3-0.8-2.7-0.8-4c0-1.3,0.2-2.6,0.5-3.9c0.3-1.3,0.6-2.5,1.1-3.7c0.5-1.2,1.2-2.4,2.1-3.4
			c0.9-1,2.1-1.8,3.3-2.3c1.3-0.5,2.7-0.7,4.1-0.3c0.7,0.2,1.4,0.4,2,1c0.3,0.3,0.6,0.7,0.7,1.1c0.1,0.4,0.1,0.9,0.1,1.2
			c-0.2,1.5-1,2.7-1.9,3.7c-0.9,1-2,1.8-3,2.5c-2,1.4-4.1,3-6.7,3.8C126.6,116.9,125.7,117.1,124.8,117.2z"/>
	</g>
	<g class="st3">
		<path class="st4" d="M220.3,112.5C220.3,112.5,220.3,112.5,220.3,112.5c-0.3,0.4-0.9,0.8-1.4,0c0,0,0-0.1-0.1-0.1
			c0.1-0.8,0.1-1.6,0-2.3c-0.1-1.4-0.8-2.6-2-3.1c-1.2-0.5-2.7-0.5-4.1-0.1c-2.8,0.8-5.3,2.7-7.1,5c-0.9,1.2-1.6,2.5-2.1,3.9
			c-0.5,1.4-0.8,2.9-0.6,4.3c0.2,1.4,0.9,2.7,2,3.4c1.1,0.8,2.5,0.8,3.9,0.3c2.8-0.8,5.2-2.9,6.6-5.5c0.7-1.3,1.2-2.7,1.4-4.1
			c0.1-0.7,0.1-1.5,0-2.2l0-0.5l0,0c-1.3,0,1.8,0,1.5,0l0,0l0,0.1l0,0.1l-0.1,0.3l-0.2,1.1l-0.9,4.6c-0.3,1.5-0.7,3.1-0.3,4.2
			c0.2,0.5,0.6,0.9,1.2,1.1c0.3,0.1,0.6,0.2,1,0.2l0.3,0c0.2,0,0.4,0,0.6,0h0c0.2,0,0.3,0,0.5,0c0,0,0.5,0,1.2-0.1
			c0.7-0.1,1.6-0.3,2.3-0.6c1.2-0.5,1.6-0.8,1.6-0.5c0,0.2-0.5,0.8-1.2,1.3c0.1,0-0.8,0.6-1.8,0.9c-1,0.4-2.2,0.5-2.2,0.5
			c-0.3,0-0.5,0-0.8,0c-0.1,0-0.3,0-0.4,0l-0.1,0l0,0l-0.2,0l-0.3-0.1c-0.4-0.1-0.9-0.2-1.3-0.4c-0.9-0.4-1.7-1.3-1.9-2.3
			c-0.2-1-0.1-1.9,0-2.7l0.9-4.8l0.4-2.4l0.1-0.6l0.1-0.3l0-0.1c0.7,0-1.5-0.1,1.5,0l0,0l0,0l0,0.1c0,0.4,0.1,0.9,0.1,1.3
			c0,1.7-0.3,3.4-1,5c-1.3,3.1-3.8,5.8-6.9,7.2c-0.8,0.3-1.6,0.6-2.5,0.7c-0.9,0.1-1.8,0.1-2.7-0.3c-1.8-0.7-3-2.3-3.5-4.1
			c-0.5-1.7-0.2-3.5,0.2-5.2c0.5-1.6,1.2-3.2,2.2-4.5c1.9-2.8,4.7-4.9,8-6c1.7-0.5,3.5-0.6,5.2,0.1c0.9,0.3,1.7,1,2.2,1.8
			c0.5,0.8,0.8,1.7,0.9,2.6C220.4,110.8,220.3,111.7,220.3,112.5z"/>
	</g>
	<g class="st3">
		<path class="st4" d="M230.1,106.8C230.1,106.8,230.1,106.8,230.1,106.8c0.3-0.4,1-0.7,1.4,0.2c0,0,0,0.1,0,0.1l-0.4,1.7l-0.5,2.2
			c-0.3,1.5-0.7,3.1-0.9,4.5c-0.2,1.5-0.1,3,0.4,4.3c0.5,1.3,1.6,2.4,2.8,2.8c1.2,0.5,2.5,0,3.6-1c2.2-2,3.7-4.7,4.9-7.6
			c0.6-1.4,1.1-2.9,1.6-4.4l0.2-0.6l0-0.1l0-0.1l0,0l0,0c2.8,1,0.8,0.3,1.4,0.5l-0.1,0.3l-0.4,1.1c-0.3,0.7-0.4,1.5-0.7,2.2
			c-0.8,3-1.4,6.1-1.8,9.1l0,0c-0.9,6.4-1.1,12.8-1.9,19.3c-0.2,1.6-0.4,3.2-0.8,4.9c-0.2,0.8-0.5,1.6-0.8,2.4
			c-0.3,0.8-0.7,1.6-1.3,2.3c-0.6,0.7-1.5,1.3-2.5,1.5c-1,0.2-1.9,0-2.7-0.2c-1.6-0.3-3.3-0.8-4.8-1.6c-0.8-0.4-1.5-1-2.1-1.7
			c-0.6-0.7-1-1.6-1.1-2.5c-0.3-1.9,0.3-3.6,1-5.1c1.5-3,3.7-5.6,6.2-7.7c0.6-0.5,1.3-1.1,1.9-1.6l1-0.7l0.7-0.5l0.4-0.3l0.7-0.5
			c0,0,2-1.1,3.5-1.8c2.5-1.2,1.7-0.3,0.4,0.7c0.1,0-0.7,0.6-1.5,1.2c-0.8,0.6-1.6,1.2-1.6,1.2l-0.7,0.5l-1.3,0.9
			c-1.2,0.9-2.4,1.9-3.5,3c-2.2,2.1-4.1,4.6-5.2,7.3c-0.5,1.4-0.6,2.8-0.1,4c0.5,1.2,1.7,2.1,3,2.7c1.3,0.6,2.9,0.9,4.3,1.2
			c0.7,0.1,1.4,0.1,1.9-0.2c0.5-0.3,1-0.7,1.4-1.3c1.5-2.5,1.9-5.6,2.2-8.7c0.7-6.2,1-12.5,1.8-18.8l0,0c0.4-3.1,1-6.3,1.8-9.3
			c0.2-0.8,0.4-1.5,0.7-2.3l0.4-1.1l0.1-0.3c0.6,0.2-1.4-0.5,1.4,0.5l0,0l0,0l0,0.1l0,0.1l-0.2,0.6c-0.5,1.5-1,3-1.6,4.5
			c-1.2,2.9-2.8,5.9-5.3,8.1c-0.6,0.6-1.4,1.1-2.3,1.4c-0.9,0.3-1.9,0.3-2.8,0c-1.8-0.6-3-2-3.7-3.6c-0.7-1.7-0.7-3.4-0.5-5
			c0.2-1.6,0.6-3.2,0.9-4.7l0.5-2.2L230.1,106.8z"/>
	</g>
	<path class="st2" d="M57.4,93.7c-0.2,2.4-0.2,4.8-0.5,7.2c-0.5,5.3-1.4,10.5-2.8,15.6c-0.9,4.6-0.9,4.6-1.9,10.2
		c0.6-1.3,1.2-2.7,1.7-4c1.5-3.6,2.6-7.4,3.5-11.2c2.1-8.9,3.1-17.9,2-26.7c-0.4-3.3-1.1-6.4-2.4-9.2c-1.5-3.3-5.4-7.5-8.3-8.9
		c-2.7-1.2-15.1-3.3-18-3.9C32.2,63.5,40,66,45.9,68c1.5,0.7,3,1.3,4.5,2.1c2.4,1.4,4,3.7,5,6.7c1,3.2,1.5,6.5,1.8,10
		c0.1,1.2,0.1,2.4,0.2,3.9"/>
</g>
<g>
	<path class="st5" d="M81.6,101.3c0.2-2,0.2-4,0.5-6c0.4-2.8,1.9-5.2,4-7.1c0.5-0.5,0.9-1.1,1.1-1.7c0.7-1.5,1.4-2.9,2.7-4
		c1.5-1.3,2-3.1,1.7-5c-0.3-1.9-0.8-3.9-1.2-5.8c-0.4-1.9-0.7-3.9-0.2-5.9c0.1-0.4,0.3-0.8,0.5-1.2c-0.5,3,0.6,5.7,1.6,8.7
		c1.4-1.4,2.6-2.6,3.9-3.8c0,0,0.1,0.1,0.1,0.1c-0.4,0.5-0.9,1-1.3,1.5c-0.6,0.7-1.1,1.4-1.6,2.1c-0.6,0.8-0.7,1.7-0.5,2.7
		c0.3,1.1,0.5,2.2,0.5,3.4c0,1.3-0.4,2.6-0.6,4c0.2-0.1,0.5-0.2,0.7-0.3c0.9-0.5,1.7-1,2.5-1.5c3.9-2.1,5.8-5.5,6.4-9.8
		c0.2-1.9,0.6-3.7,0.9-5.6c0-0.2,0.1-0.5,0.2-0.7c1.4-5.3,4.2-7.7,9.6-8c1.8-0.1,3.5,0,5.3,0c0,0.1,0,0.2,0,0.3
		c-0.2,0.1-0.5,0.2-0.7,0.2c-1.6,0.4-3.3,0.7-4.9,1.2c-3.8,1.2-5.9,4-6.3,8c-0.3,2.3-0.5,4.5-0.9,6.8c-0.5,3.1-2,5.8-4.3,8
		c-2,2-4.3,3.6-6.9,4.9c-1.5,0.7-2.9,1.5-4.4,2.2c-3.5,1.7-5.8,4.5-7.1,8.2c-0.5,1.4-0.9,2.8-1.3,4.2
		C81.8,101.4,81.7,101.3,81.6,101.3z"/>
	<path class="st5" d="M19.1,72.5c9.2,0,18.4,0.3,27.8,2.5c-2.4-3.7-4.6-7.1-3.7-11.5c-0.1,5.1,2.6,8.6,6.3,11.7
		c0.3,0.2,0.7,0.4,1,0.5c0.3,0.1,0.7,0.2,1,0.3c4.7,1.3,7.4,4.4,8.5,9c0.6,2.4,1,4.8,1.6,7.2c1.4,5.6,3.7,10.8,6.6,15.7
		c0.3,0.4,0.5,0.9,0.7,1.3c0,0.1,0.1,0.2,0.2,0.5c-0.4-0.4-0.7-0.6-1-0.9c-0.7-0.8-1.4-1.6-2.1-2.3c-4.9-5.3-7.7-11.6-9-18.6
		c-0.2-1.3-0.5-2.5-0.9-3.7c-0.7-2.2-2.1-3.7-4.3-4.4c-2.2-0.7-4.5-1.2-6.7-1.7c-8.3-1.8-16.6-3.6-24.9-5.3
		C19.8,72.8,19.4,72.7,19.1,72.5z"/>
	<path class="st4" d="M82.4,131.9c-0.6,2.4-1.3,4.7-1.9,7.1c-1.2,5.2-1.8,10.5-1.8,15.8c-0.4,4.6-0.4,4.6-1.1,10.4
		c-0.2-1.4-0.5-2.9-0.7-4.3c-0.5-3.9-0.7-7.8-0.5-11.7c0.4-9.2,2.2-18.1,6.6-26.3c1.6-3,3.5-5.9,6-8.3c2.9-2.8,6.4-4.4,10.4-5
		c3.7-0.5,7.3-0.2,11-0.1c-2.1,0.2-3.2,0.4-5.3,0.7c-2,0.2-4.1,0.4-6.1,0.8c-3.4,0.7-6.2,2.5-8.4,5.1c-2.3,2.8-4.1,5.9-5.6,9.2
		c-0.5,1.1-1,2.3-1.6,3.7"/>
	<path class="st5" d="M131.5,94c-1,0.3-2.1,0.5-3.1,0.8c-1,0.3-1.8,0.8-2.4,1.7c-0.1,0.1-0.1,0.2-0.2,0.2c-2.8,4-6.6,5.9-11.4,5.7
		c-2.5-0.1-4.9-0.3-7.4-0.2c-2.5,0-5,0.1-7.5,0.5c-3.5,0.5-6.7,2-9.7,4c-0.7,0.4-1.3,0.9-2.1,1.2c0.2-0.3,0.4-0.6,0.6-0.9
		c1.6-1.6,3.1-3.4,4.8-4.9c2.2-2,5-3,8-3.1c2.5-0.1,4.9,0,7.4,0c4.1,0,7.7-3.3,8-7.4c0-0.3,0-0.6,0.1-0.9c2.6,2.6,1.4,5.2-1.4,8.2
		c2.4-0.1,4.5-0.5,6.4-1.8c0.6-0.4,1.1-0.8,1.6-1.3c1.6-1.5,3.4-2.1,5.6-2.1c0.9,0,1.9,0,2.8,0C131.5,93.8,131.5,93.9,131.5,94z"/>
	<path class="st5" d="M63.3,59.8c0.1,0.5,0.2,0.8,0.2,1c0.1,1.4,0.7,2.4,1.7,3.4c3.3,3.2,5.9,6.8,7.3,11.2c0.7,2.2,1.2,4.4,1.7,6.6
		c0.1,0.3,0.2,0.6,0.3,1.2c3.2-3.5,5-7.5,5.5-12c0,3.9-0.8,7.5-3.1,10.6c-1.5,2.1-1.9,4.5-1.6,7c0.3,3.3,0.7,6.6,1.8,9.8
		c-0.2-0.2-0.4-0.4-0.6-0.6c-2.8-3.6-4.5-7.7-5.1-12.3c-0.2-1.9-0.6-3.7-1-5.5c-0.7-3.1-1.9-6.1-3.6-8.9c-1.2-2.1-2.3-4.2-3.3-6.3
		C62.7,63.5,62.5,61.8,63.3,59.8z"/>
	<path class="st5" d="M31.4,86.9c4.6-1.5,8.9-1,13.1,1.6c1.2,0.8,2.4,1.5,3.7,2.3c5,3,8.1,7.6,10.1,12.9c0,0.1,0,0.2,0,0.4
		c-0.4-0.4-0.7-0.8-1-1.2c-1.8-1.9-3.5-3.9-5.3-5.8c-3.9-3.9-8.5-6.8-13.6-8.8c-1.8-0.7-3.7-1.1-5.6-1.3
		C32.3,87,31.9,86.9,31.4,86.9z"/>
	<path class="st4" d="M63,131.5c-0.2,2.4-0.2,4.8-0.5,7.2c-0.5,5.3-1.4,10.5-2.8,15.6c-0.9,4.6-0.9,4.6-1.9,10.2
		c0.6-1.3,1.2-2.7,1.7-4c1.5-3.6,2.6-7.4,3.5-11.2c2.1-8.9,3.1-17.9,2-26.7c-0.4-3.3-1.1-6.4-2.4-9.2c-1.5-3.3-5.4-7.5-8.3-8.9
		c-2.7-1.2-15.1-3.3-18-3.9c1.5,0.7,9.3,3.1,15.2,5.2c1.5,0.7,3,1.3,4.5,2.1c2.4,1.4,4,3.7,5,6.7c1,3.2,1.5,6.5,1.8,10
		c0.1,1.2,0.1,2.4,0.2,3.9"/>
</g>
</svg>
